<svg xmlns="http://www.w3.org/2000/svg" xmlns:xlink="http://www.w3.org/1999/xlink" style="fill:#61dafb" version="1.1" viewBox="0 0 100 100">  
  <g transform="translate(50 50) translate(0 0) scale(1) translate(-50 -50)"> 
    <g transform="scale(3.1055903564443987) translate(0.10000002384185791 5.299998462200165)" id="picture">
      <path d="M28 9.9a1 1 0 1 1-2 0 1 1 0 1 1 2 0z M30.8 8.4C29.2 6.3 26.7 4.7 24 4 23.4 2.1 21.6.8 19.8.3c-2-.5-4.1-.3-5.9-.1-.4 0-.7.3-.8.6s-.1.7.2 1c.6.7 1.1 1.6 1.5 2.5-2.8.6-5.3 1.9-7.3 3.6C6.1 6.2 4.1 5 1.9 4.5c-.4-.1-.9.1-1.1.4S.6 5.7.8 6c2 2.9 1.7 7-.6 9.6-.2.3-.3.7-.2 1s.5.6.8.6c2.8.3 5.6-1.2 6.9-3.5 2.4 1.9 5.3 3.2 8.3 3.9-.2.9-.8 1.7-1.6 2.3-.3.2-.5.6-.4 1s.4.7.8.8c.4.1.8.1 1.2.1 1.9 0 3.7-.7 5-2l.8-.8c.4-.4.7-.9 1.1-1.1.5-.3 1.1-.4 1.8-.6.3-.1.5-.1.8-.2 1.7-.4 3.4-1.3 4.7-2.5 1-.9 1.5-1.8 1.7-2.7.2-1.1-.2-2.3-1.1-3.5zM29 13.2c-1.1 1-2.4 1.7-3.8 2-.2.1-.5.1-.7.2-.8.2-1.7.4-2.4.9-.7.4-1.2 1-1.6 1.5-.2.2-.4.5-.6.7-.6.6-1.5 1.1-2.4 1.3.5-.9.8-1.8.8-2.8 0-.5-.3-.9-.8-1-3.4-.6-6.7-2.2-9.3-4.5-.2-.2-.4-.3-.7-.3h-.3c-.3.1-.6.4-.7.7-.5 1.5-1.9 2.8-3.5 3.2 1.3-2.4 1.5-5.2.7-7.8 1.1.6 2.1 1.6 2.8 2.6.2.3.5.5.8.5s.6-.1.8-.3c2.1-2.1 5-3.6 8-4.1.3 0 .5-.2.7-.4.2-.2.2-.5.1-.8-.2-1-.6-1.9-1.1-2.8 1.2-.1 2.3-.1 3.4.2 1.3.3 2.8 1.3 2.9 2.7 0 .4.4.8.8.9 2.5.5 4.8 1.9 6.2 3.8.6.8.9 1.5.8 2.1 0 .4-.3.9-.9 1.5z M24.8 12.4c-.3-.1-.5-.5-.6-.9-.1-.5-.1-1 .1-1.4.1-.2 0-.5-.2-.7-.2-.1-.5 0-.7.2-.3.6-.4 1.4-.2 2.1.2.7.7 1.3 1.2 1.6h.2c.2 0 .4-.1.5-.3 0-.2-.1-.5-.3-.6z"/>
    </g> 
  </g> 
</svg>
